<mxfile host="app.diagrams.net" modified="2020-05-12T10:54:30.752Z" agent="5.0 (Windows NT 10.0; Win64; x64) AppleWebKit/537.36 (KHTML, like Gecko) Chrome/81.0.4044.138 Safari/537.36" etag="8ZCZze3UmYKZE5UeVYHL" version="13.0.9" type="github">
  <diagram id="1ADvsZi-Zc7lPH-UM8Th" name="Page-1">
    <mxGraphModel dx="782" dy="469" grid="1" gridSize="10" guides="1" tooltips="1" connect="1" arrows="1" fold="1" page="1" pageScale="1" pageWidth="827" pageHeight="1169" math="0" shadow="0">
      <root>
        <mxCell id="0" />
        <mxCell id="1" parent="0" />
        <mxCell id="BsjqLWHftrtH9dxVNNGu-1" value="" style="ellipse;html=1;shape=startState;fillColor=#000000;strokeColor=#ff0000;" vertex="1" parent="1">
          <mxGeometry x="384" y="20" width="30" height="30" as="geometry" />
        </mxCell>
        <mxCell id="BsjqLWHftrtH9dxVNNGu-2" value="" style="edgeStyle=orthogonalEdgeStyle;html=1;verticalAlign=bottom;endArrow=open;endSize=8;strokeColor=#ff0000;" edge="1" source="BsjqLWHftrtH9dxVNNGu-1" parent="1">
          <mxGeometry relative="1" as="geometry">
            <mxPoint x="399" y="110" as="targetPoint" />
          </mxGeometry>
        </mxCell>
        <mxCell id="BsjqLWHftrtH9dxVNNGu-3" value="Go through&lt;br&gt;&amp;nbsp;Sign Up" style="rounded=1;whiteSpace=wrap;html=1;arcSize=40;fontColor=#000000;fillColor=#ffffc0;strokeColor=#ff0000;" vertex="1" parent="1">
          <mxGeometry x="339" y="110" width="120" height="40" as="geometry" />
        </mxCell>
        <mxCell id="BsjqLWHftrtH9dxVNNGu-4" value="" style="edgeStyle=orthogonalEdgeStyle;html=1;verticalAlign=bottom;endArrow=open;endSize=8;strokeColor=#ff0000;" edge="1" source="BsjqLWHftrtH9dxVNNGu-3" parent="1">
          <mxGeometry relative="1" as="geometry">
            <mxPoint x="399" y="210" as="targetPoint" />
          </mxGeometry>
        </mxCell>
        <mxCell id="BsjqLWHftrtH9dxVNNGu-5" value="Fill in form (Username, Password, Email, Bday etc)" style="rounded=1;whiteSpace=wrap;html=1;arcSize=40;fontColor=#000000;fillColor=#ffffc0;strokeColor=#ff0000;" vertex="1" parent="1">
          <mxGeometry x="334.5" y="210" width="129" height="50" as="geometry" />
        </mxCell>
        <mxCell id="BsjqLWHftrtH9dxVNNGu-6" value="" style="edgeStyle=orthogonalEdgeStyle;html=1;verticalAlign=bottom;endArrow=open;endSize=8;strokeColor=#ff0000;" edge="1" source="BsjqLWHftrtH9dxVNNGu-5" parent="1">
          <mxGeometry relative="1" as="geometry">
            <mxPoint x="399" y="310" as="targetPoint" />
          </mxGeometry>
        </mxCell>
        <mxCell id="BsjqLWHftrtH9dxVNNGu-7" value="" style="rhombus;whiteSpace=wrap;html=1;fillColor=#ffffc0;strokeColor=#ff0000;" vertex="1" parent="1">
          <mxGeometry x="359" y="410" width="80" height="40" as="geometry" />
        </mxCell>
        <mxCell id="BsjqLWHftrtH9dxVNNGu-8" value="Invalid Input" style="edgeStyle=orthogonalEdgeStyle;html=1;align=left;verticalAlign=bottom;endArrow=open;endSize=8;strokeColor=#ff0000;entryX=0.5;entryY=1;entryDx=0;entryDy=0;" edge="1" source="BsjqLWHftrtH9dxVNNGu-7" parent="1" target="BsjqLWHftrtH9dxVNNGu-12">
          <mxGeometry x="-1" relative="1" as="geometry">
            <mxPoint x="540" y="330" as="targetPoint" />
          </mxGeometry>
        </mxCell>
        <mxCell id="BsjqLWHftrtH9dxVNNGu-9" value="" style="edgeStyle=orthogonalEdgeStyle;html=1;align=left;verticalAlign=top;endArrow=open;endSize=8;strokeColor=#ff0000;entryX=0.5;entryY=0;entryDx=0;entryDy=0;" edge="1" source="BsjqLWHftrtH9dxVNNGu-7" parent="1" target="BsjqLWHftrtH9dxVNNGu-21">
          <mxGeometry x="1" y="64" relative="1" as="geometry">
            <mxPoint x="401" y="510" as="targetPoint" />
            <Array as="points">
              <mxPoint x="399" y="500" />
              <mxPoint x="400" y="500" />
            </Array>
            <mxPoint x="-24" y="50" as="offset" />
          </mxGeometry>
        </mxCell>
        <mxCell id="BsjqLWHftrtH9dxVNNGu-12" value="Show &quot;Invalid Input&quot; Message" style="rounded=1;whiteSpace=wrap;html=1;arcSize=40;fontColor=#000000;fillColor=#ffffc0;strokeColor=#ff0000;" vertex="1" parent="1">
          <mxGeometry x="580" y="220" width="120" height="40" as="geometry" />
        </mxCell>
        <mxCell id="BsjqLWHftrtH9dxVNNGu-13" value="" style="edgeStyle=orthogonalEdgeStyle;html=1;verticalAlign=bottom;endArrow=open;endSize=8;strokeColor=#ff0000;" edge="1" parent="1">
          <mxGeometry relative="1" as="geometry">
            <mxPoint x="464" y="240" as="targetPoint" />
            <mxPoint x="580" y="240" as="sourcePoint" />
            <Array as="points">
              <mxPoint x="464" y="240" />
            </Array>
          </mxGeometry>
        </mxCell>
        <mxCell id="BsjqLWHftrtH9dxVNNGu-16" value="Valid&lt;br&gt;Input" style="text;html=1;align=center;verticalAlign=middle;resizable=0;points=[];autosize=1;" vertex="1" parent="1">
          <mxGeometry x="356" y="460" width="40" height="30" as="geometry" />
        </mxCell>
        <mxCell id="BsjqLWHftrtH9dxVNNGu-21" value="Application is submitted, user added to the Database" style="rounded=1;whiteSpace=wrap;html=1;arcSize=40;fontColor=#000000;fillColor=#ffffc0;strokeColor=#ff0000;" vertex="1" parent="1">
          <mxGeometry x="337" y="520" width="126.5" height="40" as="geometry" />
        </mxCell>
        <mxCell id="BsjqLWHftrtH9dxVNNGu-22" value="" style="edgeStyle=orthogonalEdgeStyle;html=1;verticalAlign=bottom;endArrow=open;endSize=8;strokeColor=#ff0000;entryX=0.5;entryY=0;entryDx=0;entryDy=0;" edge="1" source="BsjqLWHftrtH9dxVNNGu-21" parent="1" target="BsjqLWHftrtH9dxVNNGu-23">
          <mxGeometry relative="1" as="geometry">
            <mxPoint x="404" y="530" as="targetPoint" />
            <Array as="points">
              <mxPoint x="404" y="530" />
              <mxPoint x="404" y="530" />
            </Array>
          </mxGeometry>
        </mxCell>
        <mxCell id="BsjqLWHftrtH9dxVNNGu-23" value="User can now Login" style="rounded=1;whiteSpace=wrap;html=1;arcSize=40;fontColor=#000000;fillColor=#ffffc0;strokeColor=#ff0000;" vertex="1" parent="1">
          <mxGeometry x="343.5" y="630" width="120" height="40" as="geometry" />
        </mxCell>
        <mxCell id="BsjqLWHftrtH9dxVNNGu-24" value="" style="edgeStyle=orthogonalEdgeStyle;html=1;verticalAlign=bottom;endArrow=open;endSize=8;strokeColor=#ff0000;" edge="1" source="BsjqLWHftrtH9dxVNNGu-23" parent="1">
          <mxGeometry relative="1" as="geometry">
            <mxPoint x="404" y="760" as="targetPoint" />
          </mxGeometry>
        </mxCell>
        <mxCell id="BsjqLWHftrtH9dxVNNGu-25" value="" style="rhombus;whiteSpace=wrap;html=1;fillColor=#ffffc0;strokeColor=#ff0000;" vertex="1" parent="1">
          <mxGeometry x="359" y="310" width="80" height="40" as="geometry" />
        </mxCell>
        <mxCell id="BsjqLWHftrtH9dxVNNGu-26" value="Cancel" style="edgeStyle=orthogonalEdgeStyle;html=1;align=left;verticalAlign=bottom;endArrow=open;endSize=8;strokeColor=#ff0000;" edge="1" source="BsjqLWHftrtH9dxVNNGu-25" parent="1">
          <mxGeometry x="-1" relative="1" as="geometry">
            <mxPoint x="460" y="130" as="targetPoint" />
            <Array as="points">
              <mxPoint x="530" y="330" />
              <mxPoint x="530" y="130" />
            </Array>
          </mxGeometry>
        </mxCell>
        <mxCell id="BsjqLWHftrtH9dxVNNGu-27" value="" style="edgeStyle=orthogonalEdgeStyle;html=1;align=left;verticalAlign=top;endArrow=open;endSize=8;strokeColor=#ff0000;" edge="1" source="BsjqLWHftrtH9dxVNNGu-25" parent="1">
          <mxGeometry x="-1" relative="1" as="geometry">
            <mxPoint x="399" y="410" as="targetPoint" />
          </mxGeometry>
        </mxCell>
        <mxCell id="BsjqLWHftrtH9dxVNNGu-28" value="Submit" style="text;html=1;align=center;verticalAlign=middle;resizable=0;points=[];autosize=1;" vertex="1" parent="1">
          <mxGeometry x="356" y="373" width="50" height="20" as="geometry" />
        </mxCell>
        <mxCell id="BsjqLWHftrtH9dxVNNGu-29" value="" style="ellipse;html=1;shape=endState;fillColor=#000000;strokeColor=#ff0000;" vertex="1" parent="1">
          <mxGeometry x="388.5" y="760" width="30" height="30" as="geometry" />
        </mxCell>
      </root>
    </mxGraphModel>
  </diagram>
</mxfile>
